<?xml version="1.0" standalone="no"?>
<!DOCTYPE svg PUBLIC "-//W3C//DTD SVG 20010904//EN"
 "http://www.w3.org/TR/2001/REC-SVG-20010904/DTD/svg10.dtd">
<svg version="1.0" xmlns="http://www.w3.org/2000/svg"
 width="260.000000pt" height="260.000000pt" viewBox="0 0 260.000000 260.000000"
 preserveAspectRatio="xMidYMid meet">
<metadata>
Created by potrace 1.11, written by Peter Selinger 2001-2013
</metadata>
<g transform="translate(0.000000,260.000000) scale(0.100000,-0.100000)"
fill="#000000" stroke="none">
<path d="M460 1305 l0 -677 333 4 c283 4 340 7 387 22 187 61 270 160 278 336
5 101 -7 152 -52 217 -24 36 -48 56 -94 78 -33 17 -61 33 -61 36 -1 4 13 12
29 19 45 19 116 103 135 161 26 76 17 199 -18 272 -31 63 -90 121 -151 148
-108 47 -147 52 -473 56 l-313 5 0 -677z m613 431 c63 -31 93 -99 80 -186 -7
-56 -60 -113 -118 -129 -22 -6 -97 -11 -167 -11 l-128 0 0 176 0 176 148 -4
c119 -3 154 -7 185 -22z m-1 -536 c118 -33 155 -205 64 -296 -44 -44 -89 -54
-253 -54 l-143 0 0 180 0 180 148 0 c81 0 164 -5 184 -10z"/>
<path d="M2088 1640 c-44 -13 -94 -48 -127 -88 l-30 -37 -1 58 0 57 -130 0
-130 0 0 -500 0 -500 135 0 135 0 0 335 0 334 33 34 c43 42 100 59 190 56 l72
-2 3 125 c3 123 2 126 -20 132 -31 8 -97 6 -130 -4z"/>
</g>
</svg>
